<svg xmlns="http://www.w3.org/2000/svg" xmlns:xlink="http://www.w3.org/1999/xlink" width="2000" zoomAndPan="magnify" viewBox="0 0 1500 1499.999933" height="2000" preserveAspectRatio="xMidYMid meet" version="1.0"><defs><clipPath id="9b3613d49b"><path d="M 276.679688 308.558594 L 1224 308.558594 L 1224 1191.441406 L 276.679688 1191.441406 Z M 276.679688 308.558594 " clip-rule="nonzero"/></clipPath><clipPath id="7f06635c24"><path d="M 351.679688 308.558594 L 1148.320312 308.558594 C 1189.742188 308.558594 1223.320312 342.136719 1223.320312 383.558594 L 1223.320312 1116.441406 C 1223.320312 1157.863281 1189.742188 1191.441406 1148.320312 1191.441406 L 351.679688 1191.441406 C 310.257812 1191.441406 276.679688 1157.863281 276.679688 1116.441406 L 276.679688 383.558594 C 276.679688 342.136719 310.257812 308.558594 351.679688 308.558594 Z M 351.679688 308.558594 " clip-rule="nonzero"/></clipPath><clipPath id="241354057b"><path d="M 0.679688 0.558594 L 946 0.558594 L 946 883.441406 L 0.679688 883.441406 Z M 0.679688 0.558594 " clip-rule="nonzero"/></clipPath><clipPath id="7bde86155c"><path d="M 75.679688 0.558594 L 872.320312 0.558594 C 913.742188 0.558594 947.320312 34.136719 947.320312 75.558594 L 947.320312 808.441406 C 947.320312 849.863281 913.742188 883.441406 872.320312 883.441406 L 75.679688 883.441406 C 34.257812 883.441406 0.679688 849.863281 0.679688 808.441406 L 0.679688 75.558594 C 0.679688 34.136719 34.257812 0.558594 75.679688 0.558594 Z M 75.679688 0.558594 " clip-rule="nonzero"/></clipPath><clipPath id="bb4d66e593"><rect x="0" width="948" y="0" height="884"/></clipPath></defs><g clip-path="url(#9b3613d49b)"><g clip-path="url(#7f06635c24)"><g transform="matrix(1, 0, 0, 1, 276, 308)"><g clip-path="url(#bb4d66e593)"><g clip-path="url(#241354057b)"><g clip-path="url(#7bde86155c)"><path fill="#e8517a" d="M 0.679688 0.558594 L 945.640625 0.558594 L 945.640625 883.441406 L 0.679688 883.441406 Z M 0.679688 0.558594 " fill-opacity="1" fill-rule="nonzero"/></g></g></g></g></g></g><path fill="#2d2d2d" d="M 1035.316406 664.578125 C 1028.320312 657.683594 1019.59375 653.109375 1010 651.121094 L 1010 600.800781 C 1010 572.792969 987.210938 550 959.199219 550 L 540.800781 550 C 512.789062 550 490 572.792969 490 600.800781 L 490 651.132812 C 467.496094 656.199219 450 677.613281 450 702.304688 L 450 856.296875 C 450 874.882812 465.160156 890 483.796875 890 L 520 890 L 520 940 C 520 945.527344 524.476562 950 530 950 L 570 950 C 574.886719 950 579.0625 946.464844 579.863281 941.640625 L 588.46875 890 L 911.53125 890 L 920.136719 941.640625 C 920.9375 946.464844 925.113281 950 930 950 L 970 950 C 975.523438 950 980 945.527344 980 940 L 980 890 L 1016.296875 890 C 1034.882812 890 1050 874.832031 1050 856.199219 L 1050 700 C 1050 686.765625 1044.824219 674.21875 1035.316406 664.578125 Z M 959.199219 570 C 976.179688 570 990 583.816406 990 600.800781 L 990 651.09375 C 989.9375 651.113281 989.878906 651.121094 989.8125 651.140625 C 989.59375 651.191406 989.398438 651.292969 989.179688 651.347656 C 966.441406 656.367188 950 676.644531 950 700 L 950 770 L 760 770 L 760 570 Z M 510 600.800781 C 510 583.816406 523.816406 570 540.800781 570 L 740 570 L 740 770 L 550 770 L 550 700 C 550 686.765625 544.824219 674.21875 535.371094 664.628906 C 533.828125 663.085938 532.058594 661.628906 530.277344 660.300781 C 530.09375 660.144531 529.90625 660.007812 529.710938 659.863281 L 529.726562 659.84375 C 527.839844 658.457031 525.816406 657.097656 523.828125 656.042969 C 522.410156 655.261719 520.875 654.609375 520.027344 654.285156 C 518.960938 653.75 517.871094 653.242188 516.933594 652.9375 L 515.960938 652.617188 C 515.886719 652.585938 514.917969 652.265625 514.84375 652.234375 C 513.960938 651.964844 513.046875 651.703125 512.195312 651.488281 C 511.953125 651.425781 511.789062 651.410156 511.5625 651.355469 C 511.003906 651.230469 510.425781 651.089844 510 651.035156 Z M 561.527344 930 L 540 930 L 540 890 L 568.191406 890 Z M 960 930 L 938.472656 930 L 931.804688 890 L 960 890 Z M 1030 856.199219 C 1030 863.808594 1023.851562 870 1016.296875 870 L 483.796875 870 C 476.191406 870 470 863.855469 470 856.296875 L 470 702.304688 C 470 684.863281 483.757812 670.066406 500.097656 670 C 500.914062 670 501.800781 670.085938 502.617188 670.15625 C 502.632812 670.15625 502.644531 670.15625 502.660156 670.15625 C 502.707031 670.160156 502.742188 670.164062 502.789062 670.164062 C 503.796875 670.242188 504.746094 670.371094 506.414062 670.703125 C 507.285156 670.828125 508.148438 671.101562 508.667969 671.257812 C 508.691406 671.269531 510.367188 671.824219 510.390625 671.835938 C 510.429688 671.855469 511.625 672.421875 511.667969 672.441406 C 512.523438 672.792969 513.386719 673.132812 514.324219 673.640625 C 515.410156 674.21875 516.429688 674.910156 517.40625 675.613281 C 517.617188 675.800781 517.839844 675.976562 518.070312 676.152344 C 519.164062 676.953125 520.277344 677.820312 521.175781 678.71875 C 526.863281 684.492188 530 692.050781 530 700 L 530 780 C 530 785.527344 534.476562 790 540 790 L 960 790 C 965.523438 790 970 785.527344 970 780 L 970 702.304688 C 970 687.589844 980.09375 674.230469 993.636719 670.84375 C 993.921875 670.773438 994.183594 670.660156 994.472656 670.597656 C 995.347656 670.410156 996.230469 670.265625 996.863281 670.15625 C 997.929688 670.078125 998.925781 670 1000 670 L 1001.414062 669.988281 C 1008.808594 670.339844 1015.863281 673.484375 1021.175781 678.71875 C 1026.863281 684.492188 1030 692.050781 1030 700 Z M 1030 856.199219 " fill-opacity="1" fill-rule="nonzero"/></svg>